<?xml version="1.0" standalone="no"?>
<!DOCTYPE svg PUBLIC "-//W3C//DTD SVG 20010904//EN"
 "http://www.w3.org/TR/2001/REC-SVG-20010904/DTD/svg10.dtd">
<svg version="1.0" xmlns="http://www.w3.org/2000/svg"
 width="1022.000000pt" height="1022.000000pt" viewBox="0 0 1022.000000 1022.000000"
 preserveAspectRatio="xMidYMid meet">
<metadata>
Created by potrace 1.11, written by Peter Selinger 2001-2013
</metadata>
<g transform="translate(0.000000,1022.000000) scale(0.100000,-0.100000)"
fill="#000000" stroke="none">
<path d="M0 5110 l0 -5080 5110 0 5110 0 0 5080 0 5080 -5110 0 -5110 0 0
-5080z m4790 1881 l0 -49 -122 -5 c-192 -7 -313 -61 -369 -162 -50 -89 -53
-142 -54 -850 l0 -650 885 0 885 0 0 650 c-1 684 -5 756 -46 842 -25 52 -90
101 -184 138 -59 24 -89 29 -192 33 l-123 5 0 48 0 49 815 0 815 0 0 -49 0
-48 -122 -6 c-262 -11 -383 -98 -408 -293 -7 -53 -10 -568 -8 -1559 3 -1394 4
-1483 21 -1533 46 -135 177 -205 410 -219 l107 -6 0 -49 0 -48 -815 0 -815 0
0 50 0 50 63 0 c104 0 229 20 283 44 70 32 127 87 152 144 43 100 47 178 47
882 l0 665 -885 0 -885 0 -3 -575 c-3 -562 6 -850 29 -937 6 -23 27 -60 46
-83 72 -84 184 -127 359 -137 l114 -6 0 -49 0 -48 -815 0 -815 0 0 50 0 50 63
0 c263 0 409 76 453 238 18 64 19 136 22 1541 3 1598 3 1599 -50 1677 -60 90
-194 145 -370 152 l-118 4 0 49 0 49 815 0 815 0 0 -49z"/>
</g>
</svg>
